<svg width="200" height="100" viewBox="0 0 771 517" fill="none" xmlns="http://www.w3.org/2000/svg">
<rect x="662" y="513" width="99" height="4" fill="#202123"/>
<rect x="10" y="513" width="99" height="4" fill="#202123"/>
<rect y="475" width="771" height="38" fill="#CACBCD"/>
<rect y="475" width="771" height="38" fill="url(#paint0_linear_1_17)"/>
<rect y="475" width="191" height="38" fill="url(#paint1_linear_1_17)"/>
<rect x="771" y="513" width="191" height="38" transform="rotate(-180 771 513)" fill="url(#paint2_linear_1_17)"/>
<rect width="771" height="475" fill="#E0E1E3"/>
<rect width="771" height="236" fill="url(#paint3_linear_1_17)"/>
<rect opacity="0.5" width="771" height="475" fill="url(#paint4_linear_1_17)"/>
<rect opacity="0.5" width="771" height="475" transform="matrix(-1 0 0 1 771 0)" fill="url(#paint5_linear_1_17)"/>
<rect x="771" y="475" width="771" height="33.9999" transform="rotate(-180 771 475)" fill="url(#paint6_linear_1_17)"/>
<rect x="771" y="462" width="771" height="33.9999" transform="rotate(-180 771 462)" fill="url(#paint7_linear_1_17)"/>
<defs>
<linearGradient id="paint0_linear_1_17" x1="771" y1="494" x2="2.53567e-08" y2="494" gradientUnits="userSpaceOnUse">
<stop offset="0.130208" stop-color="#B9BBBD"/>
<stop offset="0.490272" stop-color="#CACBCD"/>
<stop offset="0.85214" stop-color="#BABBBD"/>
</linearGradient>
<linearGradient id="paint1_linear_1_17" x1="0" y1="494" x2="175" y2="494" gradientUnits="userSpaceOnUse">
<stop stop-color="#D1D2D6"/>
<stop offset="0.110769" stop-color="#A4A5A7"/>
<stop offset="0.24" stop-color="#DFDFE1"/>
<stop offset="0.317143" stop-color="#DDDEE0"/>
<stop offset="1" stop-color="#CACBCD" stop-opacity="0"/>
</linearGradient>
<linearGradient id="paint2_linear_1_17" x1="771" y1="532" x2="946" y2="532" gradientUnits="userSpaceOnUse">
<stop stop-color="#D1D2D6"/>
<stop offset="0.110769" stop-color="#A4A5A7"/>
<stop offset="0.24" stop-color="#DFDFE1"/>
<stop offset="0.317143" stop-color="#DDDEE0"/>
<stop offset="1" stop-color="#CACBCD" stop-opacity="0"/>
</linearGradient>
<linearGradient id="paint3_linear_1_17" x1="385.5" y1="0" x2="385.5" y2="236" gradientUnits="userSpaceOnUse">
<stop stop-color="#B2B3B5"/>
<stop offset="1" stop-color="#E0E1E3" stop-opacity="0"/>
</linearGradient>
<linearGradient id="paint4_linear_1_17" x1="8.06348e-06" y1="508" x2="386" y2="-1.48162e-05" gradientUnits="userSpaceOnUse">
<stop stop-color="#B2B3B5"/>
<stop offset="1" stop-color="#E0E1E3" stop-opacity="0"/>
</linearGradient>
<linearGradient id="paint5_linear_1_17" x1="8.06348e-06" y1="508" x2="386" y2="-1.48162e-05" gradientUnits="userSpaceOnUse">
<stop stop-color="#B2B3B5"/>
<stop offset="1" stop-color="#E0E1E3" stop-opacity="0"/>
</linearGradient>
<linearGradient id="paint6_linear_1_17" x1="1156.5" y1="475" x2="1156.5" y2="509" gradientUnits="userSpaceOnUse">
<stop stop-color="#666666"/>
<stop offset="0.838542" stop-color="#E0E1E3" stop-opacity="0"/>
</linearGradient>
<linearGradient id="paint7_linear_1_17" x1="1156.5" y1="462" x2="1156.5" y2="496" gradientUnits="userSpaceOnUse">
<stop stop-color="#E9EAEC" stop-opacity="0"/>
<stop offset="0.432292" stop-color="#E7E8EA"/>
<stop offset="1" stop-color="#E0E1E3" stop-opacity="0"/>
</linearGradient>
</defs>
</svg>
